<svg xmlns="http://www.w3.org/2000/svg"  viewBox="0 0 100 100" width="100px" height="100px"><path fill="#f05b6c" d="M87,26l-4,10l-4-10l-7.811,0v0H25v4l-4-4L1,26l3,4v48l21-17l15,9l8-6l8,6l15-9l8,5V56l4,7l4-7v16 l9,6V30l3-4H87z M18,53.217L12,58V41.739V36h6V53.217z M39,41.739V57l-6-3.783V36h6V41.739z M63,53.217L57,57V41.739V36h6V53.217z"/><path fill="#1f212b" d="M4,79c-0.146,0-0.293-0.032-0.431-0.098C3.222,78.737,3,78.385,3,78V30.333L0.2,26.6 c-0.228-0.303-0.264-0.708-0.095-1.047S0.621,25,1,25h20c0.265,0,0.52,0.105,0.707,0.293L24,27.586V26c0-0.552,0.448-1,1-1h54 c0.409,0,0.777,0.249,0.929,0.628L83,33.308l3.071-7.679C86.223,25.249,86.591,25,87,25h12c0.379,0,0.725,0.214,0.895,0.553 s0.133,0.744-0.095,1.047L97,30.333V78c0,0.369-0.203,0.708-0.528,0.882c-0.325,0.173-0.72,0.155-1.026-0.05l-9-6 C86.167,72.646,86,72.334,86,72V59.766l-2.132,3.73c-0.355,0.623-1.381,0.623-1.736,0L80,59.766V66 c0,0.364-0.197,0.698-0.515,0.875c-0.318,0.176-0.707,0.166-1.015-0.026l-7.481-4.676l-14.475,8.685 c-0.349,0.209-0.789,0.187-1.115-0.058L48,65.25l-7.4,5.55c-0.326,0.244-0.766,0.266-1.115,0.058l-14.4-8.64L4.629,78.777 C4.448,78.924,4.225,79,4,79z M88,71.465l7,4.667V30c0-0.216,0.07-0.427,0.2-0.6L97,27h-9.323l-3.749,9.372 C83.777,36.751,83.409,37,83,37s-0.777-0.249-0.929-0.628L78.323,27H26v3c0,0.404-0.244,0.769-0.617,0.924 c-0.375,0.154-0.804,0.069-1.09-0.217L20.586,27H3l1.8,2.4C4.93,29.573,5,29.784,5,30v45.904l19.371-15.681 c0.328-0.264,0.784-0.296,1.144-0.08l14.423,8.654L47.4,63.2c0.355-0.267,0.845-0.267,1.2,0l7.462,5.596l14.423-8.654 c0.324-0.193,0.728-0.189,1.044,0.009L78,64.196V56c0-0.454,0.305-0.85,0.743-0.966c0.439-0.12,0.9,0.077,1.125,0.47L83,60.984 l3.132-5.48c0.225-0.394,0.685-0.59,1.125-0.47C87.695,55.15,88,55.546,88,56V71.465z"/><path fill="#1f212b" d="M11.5,59.5c-0.156,0-0.313-0.037-0.458-0.111C10.709,59.218,10.5,58.875,10.5,58.5v-23 c0-0.552,0.448-1,1-1h7c0.552,0,1,0.448,1,1v18c0,0.323-0.156,0.626-0.419,0.814l-7,5C11.908,59.437,11.705,59.5,11.5,59.5z M12.5,36.5v20.057l5-3.571V36.5H12.5z"/><path fill="#1f212b" d="M56.5,58.5c-0.173,0-0.347-0.045-0.502-0.135C55.69,58.186,55.5,57.856,55.5,57.5v-22 c0-0.552,0.448-1,1-1h7c0.552,0,1,0.448,1,1v18c0,0.359-0.192,0.69-0.504,0.868l-7,4C56.842,58.456,56.671,58.5,56.5,58.5z M57.5,36.5v19.277l5-2.857V36.5H57.5z M63.5,53.5h0.01H63.5z"/><path fill="#1f212b" d="M25.5,51c-0.276,0-0.5-0.224-0.5-0.5v-20c0-0.276,0.224-0.5,0.5-0.5s0.5,0.224,0.5,0.5v20 C26,50.776,25.776,51,25.5,51z"/><path fill="#1f212b" d="M25.5,61c-0.276,0-0.5-0.224-0.5-0.5v-4c0-0.276,0.224-0.5,0.5-0.5s0.5,0.224,0.5,0.5v4 C26,60.776,25.776,61,25.5,61z"/><path fill="#1f212b" d="M25.5,54.5c-0.276,0-0.5-0.224-0.5-0.5v-1c0-0.276,0.224-0.5,0.5-0.5S26,52.724,26,53v1 C26,54.276,25.776,54.5,25.5,54.5z"/><path fill="#1f212b" d="M39.5,58.5c-0.171,0-0.342-0.044-0.496-0.132l-7-4C31.692,54.19,31.5,53.859,31.5,53.5v-18 c0-0.552,0.448-1,1-1h7c0.552,0,1,0.448,1,1v22c0,0.356-0.19,0.686-0.498,0.865C39.847,58.455,39.673,58.5,39.5,58.5z M33.5,52.92 l5,2.857V36.5h-5V52.92z"/><path fill="#1f212b" d="M48.5,50.5c-0.276,0-0.5-0.224-0.5-0.5V27c0-0.276,0.224-0.5,0.5-0.5S49,26.724,49,27v23 C49,50.276,48.776,50.5,48.5,50.5z"/><path fill="#1f212b" d="M48.5,64c-0.276,0-0.5-0.224-0.5-0.5V62c0-0.276,0.224-0.5,0.5-0.5S49,61.724,49,62v1.5 C49,63.776,48.776,64,48.5,64z"/><path fill="#1f212b" d="M48.5,54c-0.276,0-0.5-0.224-0.5-0.5v-1c0-0.276,0.224-0.5,0.5-0.5s0.5,0.224,0.5,0.5v1 C49,53.776,48.776,54,48.5,54z"/><path fill="#1f212b" d="M48.5,59.448c-0.276,0-0.5-0.224-0.5-0.5V56.5c0-0.276,0.224-0.5,0.5-0.5s0.5,0.224,0.5,0.5v2.448 C49,59.224,48.776,59.448,48.5,59.448z"/><path fill="#1f212b" d="M71.448,61.5c-0.276,0-0.5-0.224-0.5-0.5V34.426c0-0.276,0.224-0.5,0.5-0.5s0.5,0.224,0.5,0.5V61 C71.948,61.276,71.725,61.5,71.448,61.5z"/><path fill="#1f212b" d="M71.448,32.426c-0.276,0-0.5-0.224-0.5-0.5V30.5c0-0.276,0.224-0.5,0.5-0.5s0.5,0.224,0.5,0.5v1.426 C71.948,32.202,71.725,32.426,71.448,32.426z"/><path fill="#1f212b" d="M71.448,28.426c-0.276,0-0.5-0.224-0.5-0.5v-2.448c0-0.276,0.224-0.5,0.5-0.5s0.5,0.224,0.5,0.5 v2.448C71.948,28.202,71.725,28.426,71.448,28.426z"/></svg>